<svg width="163" height="32" viewBox="0 0 163 32" fill="none" xmlns="http://www.w3.org/2000/svg">
<path d="M15.9849 22.9295C16.1425 22.836 16.3386 22.8361 16.496 22.9299L22.1124 26.2766L22.1125 26.2767C22.7775 26.6732 23.5513 26.0801 23.3863 25.381L21.8976 19.0879C21.8545 18.9055 21.917 18.7142 22.0596 18.5925L27.0263 14.3525L27.0265 14.3524C27.5863 13.8749 27.2973 12.9572 26.5405 12.8979L26.5379 12.8977L20.0013 12.3511C19.8172 12.3357 19.6566 12.22 19.5836 12.0504L17.0258 6.10369L17.0252 6.10211C16.7377 5.42747 15.7424 5.42747 15.455 6.10211L15.4542 6.10407L12.8964 12.0374C12.8233 12.2069 12.6628 12.3223 12.4789 12.3377L5.94229 12.8844L5.93968 12.8846L5.93968 12.8846C5.18288 12.9439 4.89383 13.8616 5.45368 14.339L5.45385 14.3392L10.4206 18.5792C10.5632 18.7009 10.6257 18.8921 10.5825 19.0746L9.09391 25.3677L15.9849 22.9295ZM15.9849 22.9295L10.3686 26.2628L10.3677 26.2634M15.9849 22.9295L10.3677 26.2634M10.3677 26.2634C9.70275 26.6599 8.92907 26.0669 9.09386 25.3679L10.3677 26.2634Z" fill="#FFBA79" stroke="#FFBA79" stroke-linejoin="round"/>
<path d="M48.4649 22.9295C48.6225 22.836 48.8186 22.8361 48.976 22.9299L54.5923 26.2766L54.5925 26.2767C55.2575 26.6732 56.0312 26.0801 55.8662 25.381L54.3776 19.0879C54.3345 18.9055 54.397 18.7142 54.5396 18.5925L59.5063 14.3525L59.5065 14.3524C60.0663 13.8749 59.7773 12.9572 59.0205 12.8979L59.0179 12.8977L52.4813 12.3511C52.2972 12.3357 52.1366 12.22 52.0636 12.0504L49.5058 6.10369L49.5051 6.10211C49.2177 5.42747 48.2224 5.42747 47.935 6.10211L47.9342 6.10407L45.3764 12.0374C45.3033 12.2069 45.1428 12.3223 44.9589 12.3377L38.4223 12.8844L38.4197 12.8846L38.4197 12.8846C37.6629 12.9439 37.3738 13.8616 37.9337 14.339L37.9338 14.3392L42.9006 18.5792C43.0431 18.7009 43.1057 18.8921 43.0625 19.0746L41.5739 25.3677L48.4649 22.9295ZM48.4649 22.9295L42.8485 26.2628L42.8476 26.2634M48.4649 22.9295L42.8476 26.2634M42.8476 26.2634C42.1827 26.6599 41.4091 26.0669 41.5738 25.3679L42.8476 26.2634Z" fill="#FFBA79" stroke="#FFBA79" stroke-linejoin="round"/>
<path d="M80.9449 22.9295C81.1024 22.836 81.2986 22.8361 81.456 22.9299L87.0723 26.2766L87.0725 26.2767C87.7375 26.6732 88.5112 26.0801 88.3462 25.381L86.8576 19.0879C86.8145 18.9055 86.877 18.7142 87.0195 18.5925L91.9863 14.3525L91.9865 14.3524C92.5463 13.8749 92.2572 12.9572 91.5004 12.8979L91.4978 12.8977L84.9612 12.3511C84.7772 12.3357 84.6166 12.22 84.5436 12.0504L81.9858 6.10369L81.9851 6.10211C81.6977 5.42747 80.7024 5.42747 80.415 6.10211L80.4141 6.10407L77.8563 12.0374C77.7833 12.2069 77.6228 12.3223 77.4388 12.3377L70.9022 12.8844L70.8996 12.8846L70.8996 12.8846C70.1428 12.9439 69.8538 13.8616 70.4136 14.339L70.4138 14.3392L75.3805 18.5792C75.5231 18.7009 75.5856 18.8921 75.5425 19.0746L74.0539 25.3677L80.9449 22.9295ZM80.9449 22.9295L75.3285 26.2628L75.3276 26.2634M80.9449 22.9295L75.3276 26.2634M75.3276 26.2634C74.6627 26.6599 73.889 26.0669 74.0538 25.3679L75.3276 26.2634Z" fill="#FFBA79" stroke="#FFBA79" stroke-linejoin="round"/>
<path d="M113.425 22.9295C113.582 22.836 113.779 22.8361 113.936 22.9299L119.552 26.2766L119.552 26.2767C120.217 26.6732 120.991 26.0801 120.826 25.381L119.338 19.0879C119.294 18.9055 119.357 18.7142 119.5 18.5925L124.466 14.3525L124.466 14.3524C125.026 13.8749 124.737 12.9572 123.98 12.8979L123.978 12.8977L117.441 12.3511C117.257 12.3357 117.097 12.22 117.024 12.0504L114.466 6.10369L114.465 6.10211C114.178 5.42747 113.182 5.42747 112.895 6.10211L112.894 6.10407L110.336 12.0374C110.263 12.2069 110.103 12.3223 109.919 12.3377L103.382 12.8844L103.38 12.8846L103.38 12.8846C102.623 12.9439 102.334 13.8616 102.894 14.339L102.894 14.3392L107.861 18.5792C108.003 18.7009 108.066 18.8921 108.022 19.0746L106.534 25.3677L113.425 22.9295ZM113.425 22.9295L107.808 26.2628L107.808 26.2634M113.425 22.9295L107.808 26.2634M107.808 26.2634C107.143 26.6599 106.369 26.0669 106.534 25.3679L107.808 26.2634Z" fill="#FFBA79" stroke="#FFBA79" stroke-linejoin="round"/>
<path d="M145.905 22.9295C146.062 22.836 146.259 22.8361 146.416 22.9299L152.032 26.2766L152.032 26.2767C152.697 26.6732 153.471 26.0801 153.306 25.381L151.818 19.0879C151.774 18.9055 151.837 18.7142 151.98 18.5925L156.946 14.3525L156.946 14.3524C157.506 13.8749 157.217 12.9572 156.46 12.8979L156.458 12.8977L149.921 12.3511C149.737 12.3357 149.577 12.22 149.504 12.0504L146.946 6.10369L146.945 6.10211C146.658 5.42747 145.662 5.42747 145.375 6.10211L145.374 6.10407L142.816 12.0374C142.743 12.2069 142.583 12.3223 142.399 12.3377L135.862 12.8844L135.86 12.8846L135.86 12.8846C135.103 12.9439 134.814 13.8616 135.374 14.339L135.374 14.3392L140.341 18.5792C140.483 18.7009 140.546 18.8921 140.502 19.0746L139.014 25.3677L145.905 22.9295ZM145.905 22.9295L140.288 26.2628L140.288 26.2634M145.905 22.9295L140.288 26.2634M140.288 26.2634C139.623 26.6599 138.849 26.0669 139.014 25.3679L140.288 26.2634Z" fill="#FFBA79" stroke="#FFBA79" stroke-linejoin="round"/>
</svg>
